<mxfile host="app.diagrams.net" agent="Mozilla/5.0 (Windows NT 10.0; Win64; x64) AppleWebKit/537.36 (KHTML, like Gecko) Chrome/135.0.0.0 Safari/537.36" version="27.0.2">
  <diagram name="Page-1" id="v-qH5vVKj0FcOETqeskd">
    <mxGraphModel dx="1306" dy="1880" grid="1" gridSize="10" guides="1" tooltips="1" connect="1" arrows="1" fold="1" page="1" pageScale="1" pageWidth="850" pageHeight="1100" math="0" shadow="0">
      <root>
        <mxCell id="0" />
        <mxCell id="1" parent="0" />
        <mxCell id="WRHUoiSLAwNl5caNb3PW-40" value="Business Layer" style="verticalAlign=top;align=left;spacingTop=8;spacingLeft=2;spacingRight=12;shape=cube;size=10;direction=south;fontStyle=4;html=1;whiteSpace=wrap;" parent="1" vertex="1">
          <mxGeometry y="50" width="850" height="770" as="geometry" />
        </mxCell>
        <mxCell id="WRHUoiSLAwNl5caNb3PW-41" value="Service Layer" style="verticalAlign=top;align=left;spacingTop=8;spacingLeft=2;spacingRight=12;shape=cube;size=10;direction=south;fontStyle=4;html=1;whiteSpace=wrap;" parent="1" vertex="1">
          <mxGeometry y="-1020" width="850" height="570" as="geometry" />
        </mxCell>
        <mxCell id="WRHUoiSLAwNl5caNb3PW-11" value="BoardService" style="swimlane;fontStyle=1;align=center;verticalAlign=top;childLayout=stackLayout;horizontal=1;startSize=26;horizontalStack=0;resizeParent=1;resizeParentMax=0;resizeLast=0;collapsible=1;marginBottom=0;whiteSpace=wrap;html=1;" parent="1" vertex="1">
          <mxGeometry x="15" y="-810" width="330" height="170" as="geometry">
            <mxRectangle x="260" y="73" width="120" height="30" as="alternateBounds" />
          </mxGeometry>
        </mxCell>
        <mxCell id="WRHUoiSLAwNl5caNb3PW-12" value="- _boardFacade: BoardFacade" style="text;strokeColor=none;fillColor=none;align=left;verticalAlign=top;spacingLeft=4;spacingRight=4;overflow=hidden;rotatable=0;points=[[0,0.5],[1,0.5]];portConstraint=eastwest;whiteSpace=wrap;html=1;" parent="WRHUoiSLAwNl5caNb3PW-11" vertex="1">
          <mxGeometry y="26" width="330" height="24" as="geometry" />
        </mxCell>
        <mxCell id="WRHUoiSLAwNl5caNb3PW-13" value="" style="line;strokeWidth=1;fillColor=none;align=left;verticalAlign=middle;spacingTop=-1;spacingLeft=3;spacingRight=3;rotatable=0;labelPosition=right;points=[];portConstraint=eastwest;strokeColor=inherit;" parent="WRHUoiSLAwNl5caNb3PW-11" vertex="1">
          <mxGeometry y="50" width="330" height="8" as="geometry" />
        </mxCell>
        <mxCell id="WRHUoiSLAwNl5caNb3PW-14" value="+ CreateBoard(bn, email): Response&amp;lt;BoardSL&amp;gt;&lt;div&gt;+ DeleteBoard(bn, email): Response&amp;lt;&amp;gt;&lt;/div&gt;&lt;div&gt;+ LimitColumn(bn, column, limit, email): Response&amp;lt;&amp;gt;&lt;br&gt;+ GetColumn(email, bn, column): Response&amp;lt;List&amp;lt;TaskSL&amp;gt;&amp;gt;&lt;/div&gt;&lt;div&gt;+ GetColumnLimit(email, bn, column): Response&amp;lt;int&amp;gt;&lt;/div&gt;&lt;div&gt;+ GetColumnName(email, bn, column): Response&amp;lt;string&amp;gt;&lt;/div&gt;&lt;div&gt;+ InProgressTasks(email): Response&amp;lt;List&amp;lt;TaskSL&amp;gt;&amp;gt;&lt;/div&gt;" style="text;strokeColor=none;fillColor=none;align=left;verticalAlign=top;spacingLeft=4;spacingRight=4;overflow=hidden;rotatable=0;points=[[0,0.5],[1,0.5]];portConstraint=eastwest;whiteSpace=wrap;html=1;" parent="WRHUoiSLAwNl5caNb3PW-11" vertex="1">
          <mxGeometry y="58" width="330" height="112" as="geometry" />
        </mxCell>
        <mxCell id="WRHUoiSLAwNl5caNb3PW-19" value="BoardSL" style="swimlane;fontStyle=1;align=center;verticalAlign=top;childLayout=stackLayout;horizontal=1;startSize=26;horizontalStack=0;resizeParent=1;resizeParentMax=0;resizeLast=0;collapsible=1;marginBottom=0;whiteSpace=wrap;html=1;" parent="1" vertex="1">
          <mxGeometry x="620" y="-820" width="170" height="100" as="geometry" />
        </mxCell>
        <mxCell id="WRHUoiSLAwNl5caNb3PW-20" value="+ Name: string" style="text;strokeColor=none;fillColor=none;align=left;verticalAlign=top;spacingLeft=4;spacingRight=4;overflow=hidden;rotatable=0;points=[[0,0.5],[1,0.5]];portConstraint=eastwest;whiteSpace=wrap;html=1;" parent="WRHUoiSLAwNl5caNb3PW-19" vertex="1">
          <mxGeometry y="26" width="170" height="74" as="geometry" />
        </mxCell>
        <mxCell id="WRHUoiSLAwNl5caNb3PW-23" value="TaskSL" style="swimlane;fontStyle=1;align=center;verticalAlign=top;childLayout=stackLayout;horizontal=1;startSize=26;horizontalStack=0;resizeParent=1;resizeParentMax=0;resizeLast=0;collapsible=1;marginBottom=0;whiteSpace=wrap;html=1;" parent="1" vertex="1">
          <mxGeometry x="630" y="-970" width="160" height="110" as="geometry" />
        </mxCell>
        <mxCell id="WRHUoiSLAwNl5caNb3PW-24" value="+ Title: string&lt;div&gt;+ Due: DateTime&lt;/div&gt;&lt;div&gt;+ Description: string&lt;/div&gt;&lt;div&gt;+ CreationTime: DateTime&lt;/div&gt;&lt;div&gt;+ Id: int&lt;/div&gt;" style="text;strokeColor=none;fillColor=none;align=left;verticalAlign=top;spacingLeft=4;spacingRight=4;overflow=hidden;rotatable=0;points=[[0,0.5],[1,0.5]];portConstraint=eastwest;whiteSpace=wrap;html=1;" parent="WRHUoiSLAwNl5caNb3PW-23" vertex="1">
          <mxGeometry y="26" width="160" height="84" as="geometry" />
        </mxCell>
        <mxCell id="WRHUoiSLAwNl5caNb3PW-42" value="TaskService" style="swimlane;fontStyle=1;align=center;verticalAlign=top;childLayout=stackLayout;horizontal=1;startSize=26;horizontalStack=0;resizeParent=1;resizeParentMax=0;resizeLast=0;collapsible=1;marginBottom=0;whiteSpace=wrap;html=1;" parent="1" vertex="1">
          <mxGeometry x="15" y="-960" width="400" height="130" as="geometry">
            <mxRectangle x="260" y="73" width="120" height="30" as="alternateBounds" />
          </mxGeometry>
        </mxCell>
        <mxCell id="WRHUoiSLAwNl5caNb3PW-43" value="- _boardFacade: BoardFacade&lt;div&gt;- _Id : int&lt;/div&gt;" style="text;strokeColor=none;fillColor=none;align=left;verticalAlign=top;spacingLeft=4;spacingRight=4;overflow=hidden;rotatable=0;points=[[0,0.5],[1,0.5]];portConstraint=eastwest;whiteSpace=wrap;html=1;" parent="WRHUoiSLAwNl5caNb3PW-42" vertex="1">
          <mxGeometry y="26" width="400" height="34" as="geometry" />
        </mxCell>
        <mxCell id="WRHUoiSLAwNl5caNb3PW-44" value="" style="line;strokeWidth=1;fillColor=none;align=left;verticalAlign=middle;spacingTop=-1;spacingLeft=3;spacingRight=3;rotatable=0;labelPosition=right;points=[];portConstraint=eastwest;strokeColor=inherit;" parent="WRHUoiSLAwNl5caNb3PW-42" vertex="1">
          <mxGeometry y="60" width="400" height="8" as="geometry" />
        </mxCell>
        <mxCell id="WRHUoiSLAwNl5caNb3PW-45" value="&lt;div&gt;&lt;span style=&quot;background-color: transparent; color: light-dark(rgb(0, 0, 0), rgb(255, 255, 255));&quot;&gt;+ AddTask(bn, title, description, due, email): Response&amp;lt;TaskSL&amp;gt;&lt;/span&gt;&lt;/div&gt;&lt;div&gt;+ MoveTask(bn, column, id, email): Response&amp;lt;&amp;gt;&lt;/div&gt;&lt;div&gt;+ UpdateTask(bn, title, description, due, id, email, column): Response&amp;lt;&amp;gt;&lt;/div&gt;" style="text;strokeColor=none;fillColor=none;align=left;verticalAlign=top;spacingLeft=4;spacingRight=4;overflow=hidden;rotatable=0;points=[[0,0.5],[1,0.5]];portConstraint=eastwest;whiteSpace=wrap;html=1;" parent="WRHUoiSLAwNl5caNb3PW-42" vertex="1">
          <mxGeometry y="68" width="400" height="62" as="geometry" />
        </mxCell>
        <mxCell id="WRHUoiSLAwNl5caNb3PW-46" value="UserService" style="swimlane;fontStyle=1;align=center;verticalAlign=top;childLayout=stackLayout;horizontal=1;startSize=26;horizontalStack=0;resizeParent=1;resizeParentMax=0;resizeLast=0;collapsible=1;marginBottom=0;whiteSpace=wrap;html=1;" parent="1" vertex="1">
          <mxGeometry x="12.5" y="-620" width="285" height="120" as="geometry">
            <mxRectangle x="260" y="73" width="120" height="30" as="alternateBounds" />
          </mxGeometry>
        </mxCell>
        <mxCell id="WRHUoiSLAwNl5caNb3PW-47" value="- _userFacade: UserFacade" style="text;strokeColor=none;fillColor=none;align=left;verticalAlign=top;spacingLeft=4;spacingRight=4;overflow=hidden;rotatable=0;points=[[0,0.5],[1,0.5]];portConstraint=eastwest;whiteSpace=wrap;html=1;" parent="WRHUoiSLAwNl5caNb3PW-46" vertex="1">
          <mxGeometry y="26" width="285" height="26" as="geometry" />
        </mxCell>
        <mxCell id="WRHUoiSLAwNl5caNb3PW-48" value="" style="line;strokeWidth=1;fillColor=none;align=left;verticalAlign=middle;spacingTop=-1;spacingLeft=3;spacingRight=3;rotatable=0;labelPosition=right;points=[];portConstraint=eastwest;strokeColor=inherit;" parent="WRHUoiSLAwNl5caNb3PW-46" vertex="1">
          <mxGeometry y="52" width="285" height="8" as="geometry" />
        </mxCell>
        <mxCell id="WRHUoiSLAwNl5caNb3PW-49" value="+ Login(un, pass): Response&amp;lt;UserSL&amp;gt;&lt;div&gt;+ Register(un, pass, email): Response&amp;lt;UserSL&amp;gt;&amp;nbsp;&lt;/div&gt;&lt;div&gt;+ Logout(): Response&amp;lt;&amp;gt;&lt;/div&gt;" style="text;strokeColor=none;fillColor=none;align=left;verticalAlign=top;spacingLeft=4;spacingRight=4;overflow=hidden;rotatable=0;points=[[0,0.5],[1,0.5]];portConstraint=eastwest;whiteSpace=wrap;html=1;" parent="WRHUoiSLAwNl5caNb3PW-46" vertex="1">
          <mxGeometry y="60" width="285" height="60" as="geometry" />
        </mxCell>
        <mxCell id="WRHUoiSLAwNl5caNb3PW-51" value="UserSL" style="swimlane;fontStyle=1;align=center;verticalAlign=top;childLayout=stackLayout;horizontal=1;startSize=26;horizontalStack=0;resizeParent=1;resizeParentMax=0;resizeLast=0;collapsible=1;marginBottom=0;whiteSpace=wrap;html=1;" parent="1" vertex="1">
          <mxGeometry x="630" y="-680" width="160" height="70" as="geometry" />
        </mxCell>
        <mxCell id="WRHUoiSLAwNl5caNb3PW-52" value="&lt;div&gt;- _password: string&lt;/div&gt;&lt;div&gt;+ Email: string&lt;/div&gt;&lt;div&gt;&lt;br&gt;&lt;/div&gt;" style="text;strokeColor=none;fillColor=none;align=left;verticalAlign=top;spacingLeft=4;spacingRight=4;overflow=hidden;rotatable=0;points=[[0,0.5],[1,0.5]];portConstraint=eastwest;whiteSpace=wrap;html=1;" parent="WRHUoiSLAwNl5caNb3PW-51" vertex="1">
          <mxGeometry y="26" width="160" height="44" as="geometry" />
        </mxCell>
        <mxCell id="WRHUoiSLAwNl5caNb3PW-55" value="Response" style="swimlane;fontStyle=1;align=center;verticalAlign=top;childLayout=stackLayout;horizontal=1;startSize=26;horizontalStack=0;resizeParent=1;resizeParentMax=0;resizeLast=0;collapsible=1;marginBottom=0;whiteSpace=wrap;html=1;" parent="1" vertex="1">
          <mxGeometry x="630" y="-570" width="160" height="70" as="geometry" />
        </mxCell>
        <mxCell id="WRHUoiSLAwNl5caNb3PW-56" value="+ ErrorMsg: string&lt;div&gt;+ RetVal: object&lt;/div&gt;" style="text;strokeColor=none;fillColor=none;align=left;verticalAlign=top;spacingLeft=4;spacingRight=4;overflow=hidden;rotatable=0;points=[[0,0.5],[1,0.5]];portConstraint=eastwest;whiteSpace=wrap;html=1;" parent="WRHUoiSLAwNl5caNb3PW-55" vertex="1">
          <mxGeometry y="26" width="160" height="44" as="geometry" />
        </mxCell>
        <mxCell id="K5HZSOFFYCBFL0Xlxv0n-14" value="ServiceFactory" style="swimlane;fontStyle=0;childLayout=stackLayout;horizontal=1;startSize=26;fillColor=none;horizontalStack=0;resizeParent=1;resizeParentMax=0;resizeLast=0;collapsible=1;marginBottom=0;whiteSpace=wrap;html=1;" parent="1" vertex="1">
          <mxGeometry x="370" y="-810" width="200" height="140" as="geometry" />
        </mxCell>
        <mxCell id="K5HZSOFFYCBFL0Xlxv0n-15" value="- _userService: UserService" style="text;strokeColor=none;fillColor=none;align=left;verticalAlign=top;spacingLeft=4;spacingRight=4;overflow=hidden;rotatable=0;points=[[0,0.5],[1,0.5]];portConstraint=eastwest;whiteSpace=wrap;html=1;" parent="K5HZSOFFYCBFL0Xlxv0n-14" vertex="1">
          <mxGeometry y="26" width="200" height="26" as="geometry" />
        </mxCell>
        <mxCell id="K5HZSOFFYCBFL0Xlxv0n-16" value="- _boardService: BoardService" style="text;strokeColor=none;fillColor=none;align=left;verticalAlign=top;spacingLeft=4;spacingRight=4;overflow=hidden;rotatable=0;points=[[0,0.5],[1,0.5]];portConstraint=eastwest;whiteSpace=wrap;html=1;" parent="K5HZSOFFYCBFL0Xlxv0n-14" vertex="1">
          <mxGeometry y="52" width="200" height="26" as="geometry" />
        </mxCell>
        <mxCell id="K5HZSOFFYCBFL0Xlxv0n-17" value="- _taskService: TaskService&lt;div&gt;- _boardFacade: BoardFacade&lt;/div&gt;&lt;div&gt;- _userFacade: UserFacade&lt;/div&gt;" style="text;strokeColor=none;fillColor=none;align=left;verticalAlign=top;spacingLeft=4;spacingRight=4;overflow=hidden;rotatable=0;points=[[0,0.5],[1,0.5]];portConstraint=eastwest;whiteSpace=wrap;html=1;" parent="K5HZSOFFYCBFL0Xlxv0n-14" vertex="1">
          <mxGeometry y="78" width="200" height="62" as="geometry" />
        </mxCell>
        <mxCell id="DvG5gwRuAo04m7Kiv-or-2" value="User package" style="shape=folder;fontStyle=1;spacingTop=10;tabWidth=40;tabHeight=14;tabPosition=left;html=1;whiteSpace=wrap;" parent="1" vertex="1">
          <mxGeometry x="30" y="90" width="770" height="180" as="geometry" />
        </mxCell>
        <mxCell id="WRHUoiSLAwNl5caNb3PW-6" value="UserFacade" style="swimlane;fontStyle=1;align=center;verticalAlign=top;childLayout=stackLayout;horizontal=1;startSize=26;horizontalStack=0;resizeParent=1;resizeParentMax=0;resizeLast=0;collapsible=1;marginBottom=0;whiteSpace=wrap;html=1;" parent="1" vertex="1">
          <mxGeometry x="60" y="125" width="210" height="110" as="geometry" />
        </mxCell>
        <mxCell id="WRHUoiSLAwNl5caNb3PW-7" value="&lt;div&gt;&lt;div&gt;- _emails: dict&amp;lt;string, UserBL&amp;gt;&lt;/div&gt;&lt;/div&gt;&lt;div&gt;&lt;br&gt;&lt;/div&gt;" style="text;strokeColor=none;fillColor=none;align=left;verticalAlign=top;spacingLeft=4;spacingRight=4;overflow=hidden;rotatable=0;points=[[0,0.5],[1,0.5]];portConstraint=eastwest;whiteSpace=wrap;html=1;" parent="WRHUoiSLAwNl5caNb3PW-6" vertex="1">
          <mxGeometry y="26" width="210" height="24" as="geometry" />
        </mxCell>
        <mxCell id="WRHUoiSLAwNl5caNb3PW-8" value="" style="line;strokeWidth=1;fillColor=none;align=left;verticalAlign=middle;spacingTop=-1;spacingLeft=3;spacingRight=3;rotatable=0;labelPosition=right;points=[];portConstraint=eastwest;strokeColor=inherit;" parent="WRHUoiSLAwNl5caNb3PW-6" vertex="1">
          <mxGeometry y="50" width="210" height="8" as="geometry" />
        </mxCell>
        <mxCell id="WRHUoiSLAwNl5caNb3PW-9" value="~ Register(email, pass): UserBL&lt;div&gt;~ Login(email, password): UserBL&lt;/div&gt;&lt;div&gt;~ Logout(email): void&lt;/div&gt;&lt;div&gt;&lt;div&gt;&lt;br&gt;&lt;/div&gt;&lt;/div&gt;" style="text;strokeColor=none;fillColor=none;align=left;verticalAlign=top;spacingLeft=4;spacingRight=4;overflow=hidden;rotatable=0;points=[[0,0.5],[1,0.5]];portConstraint=eastwest;whiteSpace=wrap;html=1;" parent="WRHUoiSLAwNl5caNb3PW-6" vertex="1">
          <mxGeometry y="58" width="210" height="52" as="geometry" />
        </mxCell>
        <mxCell id="WRHUoiSLAwNl5caNb3PW-35" value="UserBL" style="swimlane;fontStyle=1;align=center;verticalAlign=top;childLayout=stackLayout;horizontal=1;startSize=26;horizontalStack=0;resizeParent=1;resizeParentMax=0;resizeLast=0;collapsible=1;marginBottom=0;whiteSpace=wrap;html=1;" parent="1" vertex="1">
          <mxGeometry x="555" y="120" width="160" height="140" as="geometry" />
        </mxCell>
        <mxCell id="WRHUoiSLAwNl5caNb3PW-36" value="&lt;div&gt;~ pass: string&lt;/div&gt;&lt;div&gt;~ email: string&lt;/div&gt;&lt;div&gt;~ loggedIn: bool&lt;/div&gt;" style="text;strokeColor=none;fillColor=none;align=left;verticalAlign=top;spacingLeft=4;spacingRight=4;overflow=hidden;rotatable=0;points=[[0,0.5],[1,0.5]];portConstraint=eastwest;whiteSpace=wrap;html=1;" parent="WRHUoiSLAwNl5caNb3PW-35" vertex="1">
          <mxGeometry y="26" width="160" height="64" as="geometry" />
        </mxCell>
        <mxCell id="WRHUoiSLAwNl5caNb3PW-37" value="" style="line;strokeWidth=1;fillColor=none;align=left;verticalAlign=middle;spacingTop=-1;spacingLeft=3;spacingRight=3;rotatable=0;labelPosition=right;points=[];portConstraint=eastwest;strokeColor=inherit;" parent="WRHUoiSLAwNl5caNb3PW-35" vertex="1">
          <mxGeometry y="90" width="160" height="8" as="geometry" />
        </mxCell>
        <mxCell id="WRHUoiSLAwNl5caNb3PW-38" value="~ Login(pass): UserBL&lt;div&gt;~ Logout(): void&lt;/div&gt;" style="text;strokeColor=none;fillColor=none;align=left;verticalAlign=top;spacingLeft=4;spacingRight=4;overflow=hidden;rotatable=0;points=[[0,0.5],[1,0.5]];portConstraint=eastwest;whiteSpace=wrap;html=1;" parent="WRHUoiSLAwNl5caNb3PW-35" vertex="1">
          <mxGeometry y="98" width="160" height="42" as="geometry" />
        </mxCell>
        <mxCell id="DvG5gwRuAo04m7Kiv-or-3" value="Board package" style="shape=folder;fontStyle=1;spacingTop=10;tabWidth=40;tabHeight=14;tabPosition=left;html=1;whiteSpace=wrap;" parent="1" vertex="1">
          <mxGeometry x="12.5" y="295" width="805" height="510" as="geometry" />
        </mxCell>
        <mxCell id="K5HZSOFFYCBFL0Xlxv0n-9" value="&lt;span style=&quot;font-weight: 400;&quot;&gt;ColumnBL&lt;/span&gt;" style="swimlane;fontStyle=1;align=center;verticalAlign=top;childLayout=stackLayout;horizontal=1;startSize=26;horizontalStack=0;resizeParent=1;resizeParentMax=0;resizeLast=0;collapsible=1;marginBottom=0;whiteSpace=wrap;html=1;" parent="1" vertex="1">
          <mxGeometry x="30" y="316" width="290" height="230" as="geometry" />
        </mxCell>
        <mxCell id="K5HZSOFFYCBFL0Xlxv0n-10" value="&lt;div&gt;- limit: int&lt;/div&gt;&lt;div&gt;~ tasks: List&amp;lt;TaskBL&amp;gt;&lt;/div&gt;&lt;div&gt;- name: string&lt;/div&gt;&lt;div&gt;- Names: enum&lt;/div&gt;&lt;div&gt;&lt;br&gt;&lt;/div&gt;" style="text;strokeColor=none;fillColor=none;align=left;verticalAlign=top;spacingLeft=4;spacingRight=4;overflow=hidden;rotatable=0;points=[[0,0.5],[1,0.5]];portConstraint=eastwest;whiteSpace=wrap;html=1;" parent="K5HZSOFFYCBFL0Xlxv0n-9" vertex="1">
          <mxGeometry y="26" width="290" height="64" as="geometry" />
        </mxCell>
        <mxCell id="K5HZSOFFYCBFL0Xlxv0n-11" value="" style="line;strokeWidth=1;fillColor=none;align=left;verticalAlign=middle;spacingTop=-1;spacingLeft=3;spacingRight=3;rotatable=0;labelPosition=right;points=[];portConstraint=eastwest;strokeColor=inherit;" parent="K5HZSOFFYCBFL0Xlxv0n-9" vertex="1">
          <mxGeometry y="90" width="290" height="8" as="geometry" />
        </mxCell>
        <mxCell id="K5HZSOFFYCBFL0Xlxv0n-12" value="&lt;div&gt;~ LimitColumn(limit, email): void&lt;/div&gt;&lt;div&gt;~ Add(task&lt;span style=&quot;background-color: transparent; color: light-dark(rgb(0, 0, 0), rgb(255, 255, 255));&quot;&gt;, email&lt;/span&gt;&lt;span style=&quot;background-color: transparent; color: light-dark(rgb(0, 0, 0), rgb(255, 255, 255));&quot;&gt;): void&lt;/span&gt;&lt;/div&gt;&lt;div&gt;&lt;span style=&quot;background-color: transparent; color: light-dark(rgb(0, 0, 0), rgb(255, 255, 255));&quot;&gt;~ DeleteTask(id, email): void&lt;/span&gt;&lt;/div&gt;&lt;div&gt;&lt;span style=&quot;background-color: transparent; color: light-dark(rgb(0, 0, 0), rgb(255, 255, 255));&quot;&gt;~ UpdateTask(title, description, due, id, email): void&lt;/span&gt;&lt;/div&gt;&lt;div&gt;&lt;span style=&quot;background-color: transparent; color: light-dark(rgb(0, 0, 0), rgb(255, 255, 255));&quot;&gt;~ GetTaskByIdAndColumn(id): TaskBL&lt;/span&gt;&lt;/div&gt;&lt;div&gt;&lt;span style=&quot;background-color: transparent; color: light-dark(rgb(0, 0, 0), rgb(255, 255, 255));&quot;&gt;~ GetColumn(): List&amp;lt;TaskBL&amp;gt;&lt;/span&gt;&lt;/div&gt;&lt;div&gt;~ GetColumnLimit(): int&lt;/div&gt;&lt;div&gt;~ GetColumnName(): string&lt;/div&gt;&lt;div&gt;&lt;span style=&quot;background-color: transparent; color: light-dark(rgb(0, 0, 0), rgb(255, 255, 255));&quot;&gt;&lt;br&gt;&lt;/span&gt;&lt;/div&gt;" style="text;strokeColor=none;fillColor=none;align=left;verticalAlign=top;spacingLeft=4;spacingRight=4;overflow=hidden;rotatable=0;points=[[0,0.5],[1,0.5]];portConstraint=eastwest;whiteSpace=wrap;html=1;" parent="K5HZSOFFYCBFL0Xlxv0n-9" vertex="1">
          <mxGeometry y="98" width="290" height="132" as="geometry" />
        </mxCell>
        <mxCell id="K5HZSOFFYCBFL0Xlxv0n-1" value="&lt;span style=&quot;font-weight: 400;&quot;&gt;BoardBL&lt;/span&gt;" style="swimlane;fontStyle=1;align=center;verticalAlign=top;childLayout=stackLayout;horizontal=1;startSize=26;horizontalStack=0;resizeParent=1;resizeParentMax=0;resizeLast=0;collapsible=1;marginBottom=0;whiteSpace=wrap;html=1;" parent="1" vertex="1">
          <mxGeometry x="470" y="316" width="330" height="240" as="geometry" />
        </mxCell>
        <mxCell id="K5HZSOFFYCBFL0Xlxv0n-2" value="~ name: string&lt;div&gt;~ columns: List&amp;lt;ColumnBL&amp;gt;&lt;/div&gt;&lt;div&gt;~ owner: string&lt;/div&gt;" style="text;strokeColor=none;fillColor=none;align=left;verticalAlign=top;spacingLeft=4;spacingRight=4;overflow=hidden;rotatable=0;points=[[0,0.5],[1,0.5]];portConstraint=eastwest;whiteSpace=wrap;html=1;" parent="K5HZSOFFYCBFL0Xlxv0n-1" vertex="1">
          <mxGeometry y="26" width="330" height="54" as="geometry" />
        </mxCell>
        <mxCell id="K5HZSOFFYCBFL0Xlxv0n-3" value="" style="line;strokeWidth=1;fillColor=none;align=left;verticalAlign=middle;spacingTop=-1;spacingLeft=3;spacingRight=3;rotatable=0;labelPosition=right;points=[];portConstraint=eastwest;strokeColor=inherit;" parent="K5HZSOFFYCBFL0Xlxv0n-1" vertex="1">
          <mxGeometry y="80" width="330" height="8" as="geometry" />
        </mxCell>
        <mxCell id="K5HZSOFFYCBFL0Xlxv0n-4" value="~ MoveTask(column, id, email): void&lt;div&gt;~ DeleteBoard(email): void&lt;/div&gt;&lt;div&gt;~ LimitColumn(column, limit, email): void&lt;/div&gt;&lt;div&gt;~ AddTask(&lt;span style=&quot;background-color: transparent; color: light-dark(rgb(0, 0, 0), rgb(255, 255, 255));&quot;&gt;title, description, due, id, email&lt;/span&gt;&lt;span style=&quot;background-color: transparent; color: light-dark(rgb(0, 0, 0), rgb(255, 255, 255));&quot;&gt;): TaskBL&lt;/span&gt;&lt;/div&gt;&lt;div&gt;&lt;span style=&quot;background-color: transparent; color: light-dark(rgb(0, 0, 0), rgb(255, 255, 255));&quot;&gt;~ UpdateTask(title, description, due, id, email, column): void&lt;/span&gt;&lt;/div&gt;&lt;div&gt;&lt;span style=&quot;background-color: transparent; color: light-dark(rgb(0, 0, 0), rgb(255, 255, 255));&quot;&gt;~ GetTaskByIdAndColumn(id, column): TaskBL&lt;br&gt;~ GetColumn(column): List&amp;lt;TaskBL&amp;gt;&lt;br&gt;~ GetColumnLimit(column): int&lt;/span&gt;&lt;/div&gt;&lt;div&gt;&lt;span style=&quot;background-color: transparent; color: light-dark(rgb(0, 0, 0), rgb(255, 255, 255));&quot;&gt;~ GetColumnName(column): string&lt;/span&gt;&lt;/div&gt;" style="text;strokeColor=none;fillColor=none;align=left;verticalAlign=top;spacingLeft=4;spacingRight=4;overflow=hidden;rotatable=0;points=[[0,0.5],[1,0.5]];portConstraint=eastwest;whiteSpace=wrap;html=1;" parent="K5HZSOFFYCBFL0Xlxv0n-1" vertex="1">
          <mxGeometry y="88" width="330" height="152" as="geometry" />
        </mxCell>
        <mxCell id="K5HZSOFFYCBFL0Xlxv0n-5" value="&lt;span style=&quot;font-weight: 400;&quot;&gt;TaskBL&lt;/span&gt;" style="swimlane;fontStyle=1;align=center;verticalAlign=top;childLayout=stackLayout;horizontal=1;startSize=26;horizontalStack=0;resizeParent=1;resizeParentMax=0;resizeLast=0;collapsible=1;marginBottom=0;whiteSpace=wrap;html=1;" parent="1" vertex="1">
          <mxGeometry x="520" y="630" width="250" height="150" as="geometry" />
        </mxCell>
        <mxCell id="K5HZSOFFYCBFL0Xlxv0n-6" value="~ title: string&lt;div&gt;~ due: DateTime&lt;/div&gt;&lt;div&gt;~ description: string&lt;/div&gt;&lt;div&gt;~ creation_time: DateTime&lt;/div&gt;&lt;div&gt;~ id: int&lt;/div&gt;" style="text;strokeColor=none;fillColor=none;align=left;verticalAlign=top;spacingLeft=4;spacingRight=4;overflow=hidden;rotatable=0;points=[[0,0.5],[1,0.5]];portConstraint=eastwest;whiteSpace=wrap;html=1;" parent="K5HZSOFFYCBFL0Xlxv0n-5" vertex="1">
          <mxGeometry y="26" width="250" height="84" as="geometry" />
        </mxCell>
        <mxCell id="K5HZSOFFYCBFL0Xlxv0n-7" value="" style="line;strokeWidth=1;fillColor=none;align=left;verticalAlign=middle;spacingTop=-1;spacingLeft=3;spacingRight=3;rotatable=0;labelPosition=right;points=[];portConstraint=eastwest;strokeColor=inherit;" parent="K5HZSOFFYCBFL0Xlxv0n-5" vertex="1">
          <mxGeometry y="110" width="250" height="8" as="geometry" />
        </mxCell>
        <mxCell id="K5HZSOFFYCBFL0Xlxv0n-8" value="~ UpdateTask(title, description, due, id): void" style="text;strokeColor=none;fillColor=none;align=left;verticalAlign=top;spacingLeft=4;spacingRight=4;overflow=hidden;rotatable=0;points=[[0,0.5],[1,0.5]];portConstraint=eastwest;whiteSpace=wrap;html=1;" parent="K5HZSOFFYCBFL0Xlxv0n-5" vertex="1">
          <mxGeometry y="118" width="250" height="32" as="geometry" />
        </mxCell>
        <mxCell id="WRHUoiSLAwNl5caNb3PW-59" value="BoardFacade" style="swimlane;fontStyle=1;align=center;verticalAlign=top;childLayout=stackLayout;horizontal=1;startSize=26;horizontalStack=0;resizeParent=1;resizeParentMax=0;resizeLast=0;collapsible=1;marginBottom=0;whiteSpace=wrap;html=1;" parent="1" vertex="1">
          <mxGeometry x="30" y="560" width="370" height="230" as="geometry" />
        </mxCell>
        <mxCell id="WRHUoiSLAwNl5caNb3PW-60" value="- _boards: dict&amp;lt;name, board&amp;gt;&lt;div&gt;- _userFacade: UserFacade&lt;/div&gt;" style="text;strokeColor=none;fillColor=none;align=left;verticalAlign=top;spacingLeft=4;spacingRight=4;overflow=hidden;rotatable=0;points=[[0,0.5],[1,0.5]];portConstraint=eastwest;whiteSpace=wrap;html=1;" parent="WRHUoiSLAwNl5caNb3PW-59" vertex="1">
          <mxGeometry y="26" width="370" height="44" as="geometry" />
        </mxCell>
        <mxCell id="WRHUoiSLAwNl5caNb3PW-61" value="" style="line;strokeWidth=1;fillColor=none;align=left;verticalAlign=middle;spacingTop=-1;spacingLeft=3;spacingRight=3;rotatable=0;labelPosition=right;points=[];portConstraint=eastwest;strokeColor=inherit;" parent="WRHUoiSLAwNl5caNb3PW-59" vertex="1">
          <mxGeometry y="70" width="370" height="8" as="geometry" />
        </mxCell>
        <mxCell id="WRHUoiSLAwNl5caNb3PW-62" value="~ CreateBoard(bn, email): BoardBL&lt;div&gt;~ DeleteBoard(bn, email): void&lt;/div&gt;&lt;div&gt;&lt;div&gt;~ MoveTask(bn, column, id, email): void&lt;/div&gt;&lt;div&gt;~ AddTask(bn,&amp;nbsp;&lt;span style=&quot;background-color: transparent; color: light-dark(rgb(0, 0, 0), rgb(255, 255, 255));&quot;&gt;title, description, due, email, id&lt;/span&gt;&lt;span style=&quot;background-color: transparent; color: light-dark(rgb(0, 0, 0), rgb(255, 255, 255));&quot;&gt;): TaskBL&lt;/span&gt;&lt;/div&gt;&lt;div&gt;~ UpdateTask(bn, title, description, due, id, email, column): TaskBL&lt;/div&gt;&lt;/div&gt;&lt;div&gt;~ LimitColumn(bn, column, limit, email): void&lt;/div&gt;&lt;div&gt;~ GetColumn(email, bn, column): List&amp;lt;TaskBL&amp;gt;&lt;/div&gt;&lt;div&gt;~ GetColumnLimit(email, bn, column): int&lt;/div&gt;&lt;div&gt;~ GetColumnName(email, bn, column): string&lt;/div&gt;&lt;div&gt;~ InProgressTasks(email, bn, column): List&amp;lt;TaskBL&amp;gt;&lt;/div&gt;&lt;div&gt;&lt;br&gt;&lt;/div&gt;" style="text;strokeColor=none;fillColor=none;align=left;verticalAlign=top;spacingLeft=4;spacingRight=4;overflow=hidden;rotatable=0;points=[[0,0.5],[1,0.5]];portConstraint=eastwest;whiteSpace=wrap;html=1;" parent="WRHUoiSLAwNl5caNb3PW-59" vertex="1">
          <mxGeometry y="78" width="370" height="152" as="geometry" />
        </mxCell>
        <mxCell id="DvG5gwRuAo04m7Kiv-or-5" value="" style="endArrow=diamondThin;endFill=1;endSize=24;html=1;rounded=0;entryX=0.993;entryY=0.104;entryDx=0;entryDy=0;entryPerimeter=0;exitX=0;exitY=-0.056;exitDx=0;exitDy=0;exitPerimeter=0;" parent="1" source="K5HZSOFFYCBFL0Xlxv0n-2" target="K5HZSOFFYCBFL0Xlxv0n-9" edge="1">
          <mxGeometry width="160" relative="1" as="geometry">
            <mxPoint x="474.49" y="-284.55999999999995" as="sourcePoint" />
            <mxPoint x="463.5" as="targetPoint" />
          </mxGeometry>
        </mxCell>
        <mxCell id="DvG5gwRuAo04m7Kiv-or-6" value="" style="endArrow=diamondThin;endFill=1;endSize=24;html=1;rounded=0;entryX=0.004;entryY=0.141;entryDx=0;entryDy=0;entryPerimeter=0;exitX=1.009;exitY=1.02;exitDx=0;exitDy=0;exitPerimeter=0;" parent="1" source="K5HZSOFFYCBFL0Xlxv0n-12" target="K5HZSOFFYCBFL0Xlxv0n-5" edge="1">
          <mxGeometry width="160" relative="1" as="geometry">
            <mxPoint x="467.5" y="-39" as="sourcePoint" />
            <mxPoint x="343.5" y="-40" as="targetPoint" />
          </mxGeometry>
        </mxCell>
        <mxCell id="FtEP_Goay8TGdFXUMy4l-2" value="" style="endArrow=diamondThin;endFill=1;endSize=24;html=1;rounded=0;entryX=0.728;entryY=0;entryDx=0;entryDy=0;entryPerimeter=0;exitX=0.706;exitY=1.007;exitDx=0;exitDy=0;exitPerimeter=0;" parent="1" source="K5HZSOFFYCBFL0Xlxv0n-4" target="K5HZSOFFYCBFL0Xlxv0n-5" edge="1">
          <mxGeometry width="160" relative="1" as="geometry">
            <mxPoint x="350" y="-150" as="sourcePoint" />
            <mxPoint x="510" y="-150" as="targetPoint" />
          </mxGeometry>
        </mxCell>
        <mxCell id="FtEP_Goay8TGdFXUMy4l-5" value="שינויים מאז העיצוב הקודם:&lt;br&gt;access modifiers were changed based on the structure of the project and the function&#39;s/field&#39;s position&lt;div&gt;userfacade was added in boardfacade in order to validate email&lt;/div&gt;&lt;div&gt;dates were changed from string to DateTime because of GradingService&lt;/div&gt;&lt;div&gt;added functions required in GradingService&lt;/div&gt;&lt;div&gt;name and enum for each column were added&lt;br&gt;a reference to the owner a board was added&lt;/div&gt;&lt;div&gt;changed everything from name to email - user wise&lt;br&gt;loggedIn field was added in UserBL&lt;/div&gt;&lt;div&gt;removed from all SL objects unused/unnecessary fields&lt;/div&gt;&lt;div&gt;changed structure of ServiceLayer&lt;/div&gt;&lt;div&gt;adding new field of Id to taskServices class&lt;/div&gt;&lt;div&gt;&lt;br&gt;&lt;/div&gt;" style="html=1;whiteSpace=wrap;" parent="1" vertex="1">
          <mxGeometry x="160" y="830" width="525" height="230" as="geometry" />
        </mxCell>
      </root>
    </mxGraphModel>
  </diagram>
</mxfile>
